<svg width="45" height="45" viewBox="0 0 45 45" fill="none" xmlns="http://www.w3.org/2000/svg">
<path d="M19.5109 0.0557453C8.75202 0.0557453 0 8.80776 0 19.5666C0 30.3255 8.75202 39.0775 19.5109 39.0775C22.7998 39.0775 26.0331 38.297 28.7646 36.7919C28.9834 37.0552 29.226 37.2978 29.4893 37.5166L35.0638 43.0911C35.5785 43.6703 36.2062 44.1382 36.9083 44.466C37.6104 44.7939 38.3721 44.9747 39.1467 44.9975C39.9212 45.0203 40.6922 44.8846 41.4124 44.5986C42.1326 44.3127 42.7867 43.8825 43.3346 43.3346C43.8825 42.7867 44.3127 42.1326 44.5986 41.4124C44.8846 40.6922 45.0203 39.9212 44.9975 39.1467C44.9747 38.3721 44.7939 37.6104 44.466 36.9083C44.1382 36.2062 43.6703 35.5786 43.0911 35.0638L37.5166 29.4893C37.2451 29.2176 36.9462 28.9748 36.6247 28.7646C38.1298 26.0331 39.0775 22.8556 39.0775 19.5109C39.0775 8.75202 30.3255 0 19.5666 0L19.5109 0.0557453ZM19.5109 5.63028C27.2595 5.63028 33.4472 11.818 33.4472 19.5666C33.4472 23.2458 32.1093 26.6463 29.768 29.1548C29.7123 29.2106 29.6565 29.2663 29.6008 29.322C29.3375 29.5408 29.0949 29.7834 28.8761 30.0467C26.4233 32.2765 23.0786 33.5587 19.4551 33.5587C11.7065 33.5587 5.51879 27.371 5.51879 19.6224C5.51879 11.8738 11.7065 5.68602 19.4551 5.68602L19.5109 5.63028Z" fill="white"/>
</svg>
